<?xml version="1.0" standalone="no"?>
<!DOCTYPE svg PUBLIC "-//W3C//DTD SVG 20010904//EN"
 "http://www.w3.org/TR/2001/REC-SVG-20010904/DTD/svg10.dtd">
<svg version="1.0" xmlns="http://www.w3.org/2000/svg"
 width="400.000000pt" height="400.000000pt" viewBox="0 0 400.000000 400.000000"
 preserveAspectRatio="xMidYMid meet">

<g transform="translate(0.000000,400.000000) scale(0.100000,-0.100000)"
fill="#000000" stroke="none">
<path d="M946 2866 c-58 -63 -106 -117 -106 -120 0 -3 58 -6 129 -6 l129 0 87
95 87 95 867 0 c828 0 869 1 884 18 10 10 17 22 17 25 0 4 -447 7 -994 7
l-994 0 -106 -114z"/>
<path d="M3082 2964 c-38 -26 -25 -34 61 -34 69 0 87 3 100 18 10 10 17 22 17
25 0 4 -35 7 -78 7 -54 0 -84 -5 -100 -16z"/>
<path d="M3297 2962 c-10 -10 -17 -22 -17 -25 0 -4 38 -7 83 -7 69 0 87 3 100
18 10 10 17 22 17 25 0 4 -38 7 -83 7 -69 0 -87 -3 -100 -18z"/>
<path d="M3517 2962 c-10 -10 -17 -22 -17 -25 0 -13 165 -8 178 5 29 29 13 38
-66 38 -64 0 -82 -4 -95 -18z"/>
<path d="M1221 2827 l-74 -82 79 -3 79 -3 72 78 c40 43 73 81 73 86 0 4 -35 7
-77 6 l-78 0 -74 -82z"/>
<path d="M1431 2831 c-39 -43 -71 -81 -71 -85 0 -3 35 -6 78 -6 l77 0 66 73
c93 103 93 97 1 97 l-80 0 -71 -79z"/>
<path d="M1632 2827 l-73 -82 78 -3 78 -3 73 78 c39 43 72 81 72 85 0 5 -35 8
-77 8 l-78 -1 -73 -82z"/>
<path d="M1912 2887 c-12 -13 -19 -27 -15 -30 3 -4 288 -7 633 -7 676 0 635
-3 664 48 6 9 -122 12 -627 12 l-634 0 -21 -23z"/>
<path d="M685 2870 l-29 -31 -199 1 c-114 1 -203 -2 -209 -8 -5 -5 -8 -27 -6
-48 l3 -39 250 -3 249 -2 73 72 c40 40 73 76 73 80 0 5 -40 8 -88 8 -85 0 -89
-1 -117 -30z"/>
<path d="M3191 2814 c-17 -19 -56 -84 -86 -145 -30 -60 -60 -109 -65 -109 -6
0 -10 -4 -10 -10 0 -5 7 -10 15 -10 17 0 20 -32 5 -60 -6 -11 -37 -38 -70 -60
-33 -22 -60 -45 -60 -50 0 -5 16 -22 35 -37 l35 -29 -25 -24 c-13 -12 -22 -27
-19 -32 4 -6 6 -52 6 -103 -1 -118 1 -120 116 -117 119 4 179 -15 229 -72 63
-72 78 -147 43 -223 -24 -53 -13 -55 32 -5 51 57 72 118 66 195 -6 77 -30 126
-147 301 -125 185 -136 215 -136 352 0 109 0 112 41 192 22 45 37 82 33 82 -4
0 -21 -16 -38 -36z"/>
<path d="M1817 2772 c-10 -10 -17 -22 -17 -25 0 -4 283 -7 628 -7 l629 0 23
25 23 25 -635 0 c-602 0 -636 -1 -651 -18z"/>
<path d="M3241 2725 c-51 -122 -3 -267 171 -524 97 -143 128 -204 153 -299 19
-76 19 -115 -1 -183 -22 -74 -80 -132 -156 -154 -48 -14 -69 -14 -144 -4 -137
18 -237 -1 -304 -59 -52 -44 -70 -80 -114 -234 -51 -179 -93 -291 -127 -338
-32 -44 -23 -56 11 -13 36 46 86 160 140 319 57 169 74 200 123 238 52 40 126
50 264 35 128 -13 185 -8 241 19 20 11 65 22 100 25 216 18 300 234 181 462
-43 82 -68 112 -274 331 -194 206 -234 263 -245 353 -7 56 -7 56 -19 26z m32
-157 c28 -62 109 -165 233 -299 180 -193 227 -258 263 -366 29 -87 27 -147 -6
-214 -32 -62 -91 -104 -162 -115 l-45 -7 22 27 c34 44 62 131 62 194 0 122
-65 281 -166 408 -118 146 -188 264 -218 363 -18 60 -18 61 -12 61 3 0 15 -24
29 -52z"/>
<path d="M682 2383 c-50 -99 -132 -283 -132 -297 0 -25 72 -21 95 4 14 16 31
20 75 20 44 0 61 -4 75 -20 24 -27 95 -29 94 -2 0 9 -33 87 -73 172 -82 176
-100 192 -134 123z m52 -149 c10 -26 7 -34 -14 -34 -21 0 -24 8 -14 34 8 20
20 20 28 0z"/>
<path d="M1143 2413 c-9 -3 -13 -28 -13 -74 0 -38 -3 -69 -8 -69 -4 0 -39 32
-77 70 -46 46 -77 70 -92 70 l-23 0 2 -167 3 -168 39 -3 c49 -4 56 6 56 87 l0
64 80 -77 c113 -111 114 -110 118 93 2 125 -1 166 -10 173 -14 8 -56 9 -75 1z"/>
<path d="M1369 2397 c-65 -35 -91 -84 -87 -168 3 -54 9 -73 31 -102 72 -95
242 -83 291 20 21 44 21 109 0 117 -25 10 -114 7 -135 -4 -36 -20 -13 -91 26
-77 22 9 28 -11 6 -22 -31 -17 -66 -13 -95 10 -21 17 -26 29 -26 65 0 79 66
119 123 74 16 -13 40 -20 66 -20 34 0 41 3 41 20 0 30 -57 88 -98 100 -57 15
-95 12 -143 -13z"/>
<path d="M1765 2409 c-104 -32 -148 -165 -89 -267 45 -76 143 -103 230 -63
147 67 135 280 -19 326 -56 17 -78 17 -122 4z m124 -115 c47 -59 13 -134 -59
-134 -52 0 -80 27 -80 77 0 51 32 83 81 83 29 0 42 -6 58 -26z"/>
<path d="M2088 2413 l-28 -4 0 -170 0 -169 105 0 105 0 6 27 c11 42 -6 58 -70
61 l-56 3 0 123 c0 104 -3 125 -16 130 -9 3 -16 5 -17 5 -1 -1 -14 -4 -29 -6z"/>
<path d="M2427 2411 c-39 -9 -97 -58 -113 -97 -65 -156 87 -305 241 -235 80
36 114 104 100 196 -9 63 -52 110 -118 130 -53 16 -65 16 -110 6z m112 -117
c46 -59 15 -134 -56 -134 -49 0 -83 32 -83 79 0 76 94 113 139 55z"/>
<path d="M807 1882 c-16 -3 -17 -17 -15 -170 l3 -167 108 -3 107 -3 0 39 0 40
-60 4 c-65 5 -75 10 -67 33 4 10 20 15 49 15 58 0 70 10 66 51 -3 33 -4 34
-58 39 -40 4 -55 9 -55 20 0 11 16 16 60 20 59 5 60 5 63 38 2 20 -2 34 -10
36 -19 6 -170 13 -191 8z"/>
<path d="M1607 1882 c-16 -3 -17 -17 -15 -170 l3 -167 108 -3 107 -3 0 41 0
40 -48 0 c-51 0 -90 19 -78 38 4 7 26 12 49 12 57 0 69 10 65 51 -3 33 -4 34
-58 39 -40 4 -55 9 -55 20 0 11 16 16 60 20 59 5 60 5 63 38 2 20 -2 34 -10
36 -19 6 -170 13 -191 8z"/>
<path d="M1910 1880 l-55 -5 0 -35 0 -35 53 -3 c31 -2 52 -8 52 -15 0 -6 -27
-60 -61 -120 -37 -67 -57 -113 -52 -118 5 -5 68 -8 139 -7 l129 3 0 35 0 35
-60 5 c-47 4 -59 8 -57 20 2 8 28 60 58 114 30 54 54 105 54 112 0 14 -110 22
-200 14z"/>
<path d="M2178 1880 c-19 -5 -23 -13 -23 -40 l0 -35 58 -5 57 -5 -65 -119
c-38 -68 -62 -123 -57 -128 5 -5 67 -7 138 -6 l129 3 0 35 0 35 -60 5 c-47 4
-59 8 -57 20 2 8 28 60 58 114 30 54 54 105 54 112 0 10 -18 14 -67 15 -38 1
-85 2 -105 3 -20 0 -47 -1 -60 -4z"/>
<path d="M2579 1873 c-25 -42 -147 -318 -143 -325 11 -17 81 -8 99 12 14 16
31 20 76 20 48 0 60 -4 69 -20 8 -15 21 -20 55 -20 28 0 45 4 45 12 0 17 -131
300 -148 321 -8 9 -21 17 -28 17 -8 0 -19 -8 -25 -17z m51 -195 c0 -4 -9 -8
-20 -8 -21 0 -24 8 -13 36 6 16 7 16 20 -2 7 -10 13 -21 13 -26z"/>
<path d="M467 1867 c-7 -19 -8 -292 -1 -311 5 -13 24 -16 111 -16 97 0 106 2
128 24 32 32 41 72 25 110 -7 17 -12 59 -11 92 2 57 0 63 -29 88 -29 24 -39
26 -125 26 -67 0 -94 -4 -98 -13z m158 -77 c9 -15 -14 -40 -36 -40 -22 0 -33
16 -25 35 6 17 52 20 61 5z m12 -136 c8 -20 -14 -35 -47 -32 -17 2 -26 10 -28
26 -3 19 1 22 33 22 23 0 38 -5 42 -16z"/>
<path d="M1066 1848 c-4 -18 -4 -95 0 -170 l7 -138 102 0 c111 0 122 5 109 55
-5 21 -12 24 -62 27 l-57 3 -3 128 -3 127 -43 0 c-41 0 -44 -2 -50 -32z"/>
<path d="M1328 1821 c-1 -33 -2 -109 0 -170 l3 -111 104 0 c95 0 104 2 110 20
14 43 -2 59 -63 62 l-57 3 -3 128 -3 127 -43 0 -44 0 -4 -59z"/>
</g>
</svg>
