<?xml version="1.0" encoding="UTF-8" standalone="no"?>
<svg
   version="1.1"
   id="Layer_1"
   x="0px"
   y="0px"
   width="100%"
   viewBox="0 0 1024 1024"
   enable-background="new 0 0 1024 1024"
   xml:space="preserve"
   sodipodi:docname="logo estics definitivo.svg"
   inkscape:version="1.4.3 (0d15f75, 2025-12-25)"
   xmlns:inkscape="http://www.inkscape.org/namespaces/inkscape"
   xmlns:sodipodi="http://sodipodi.sourceforge.net/DTD/sodipodi-0.dtd"
   xmlns="http://www.w3.org/2000/svg"
   xmlns:svg="http://www.w3.org/2000/svg"><defs
   id="defs7" /><sodipodi:namedview
   id="namedview7"
   pagecolor="#ffffff"
   bordercolor="#000000"
   borderopacity="0.25"
   inkscape:showpageshadow="2"
   inkscape:pageopacity="0.0"
   inkscape:pagecheckerboard="0"
   inkscape:deskcolor="#d1d1d1"
   inkscape:zoom="0.22371278"
   inkscape:cx="181.0357"
   inkscape:cy="373.24645"
   inkscape:window-width="1440"
   inkscape:window-height="900"
   inkscape:window-x="0"
   inkscape:window-y="0"
   inkscape:window-maximized="0"
   inkscape:current-layer="Layer_1" />
<path
   fill="#000000"
   opacity="1.000000"
   stroke="none"
   d=" M427.933838,457.067688   C446.818817,473.866089 468.101135,484.844727 493.016785,488.227631   C500.361786,489.224945 501.897217,487.931915 501.889709,480.358276   C501.854431,444.693970 501.802216,409.029663 501.756104,373.365356   C501.754822,372.365417 501.747009,371.365417 501.754700,370.365540   C501.841858,359.040466 506.738525,354.210938 517.884949,354.203064   C548.370483,354.181519 578.856079,354.102081 609.341614,354.028503   C622.568237,353.996582 626.327026,357.183990 627.486023,370.331024   C628.643677,383.462769 627.766785,396.638397 627.800720,409.794800   C627.822998,418.449707 627.426697,427.138428 628.051453,435.751526   C629.036194,449.327698 624.438232,460.176575 614.942261,469.841553   C596.148438,488.969696 573.981140,502.030121 548.308167,509.469330   C543.166321,510.959290 537.976624,511.982178 532.729614,512.858704   C528.889160,513.500244 527.138794,515.430054 527.152039,519.634705   C527.253601,551.965454 527.136292,584.296814 527.140930,616.627991   C527.141846,623.151245 528.035034,623.922241 535.408325,623.929504   C568.572327,623.962219 601.736389,623.976440 634.900391,623.942749   C666.397827,623.910828 697.895203,623.815369 729.392639,623.738525   C737.307129,623.719238 742.223572,627.814392 742.710449,634.878540   C743.210144,642.128784 738.597168,647.598511 730.864746,648.308899   C725.236694,648.826050 719.554382,648.911377 713.896057,648.916138   C653.400513,648.967102 592.905029,648.975830 532.409485,648.954590   C526.917297,648.952637 521.425354,648.656921 515.933105,648.505249   C506.437225,648.243042 501.813263,643.709656 501.800629,634.208923   C501.753387,598.711426 501.800842,563.213684 501.810883,527.716064   C501.811584,525.216370 501.813995,522.716492 501.784668,520.217041   C501.739746,516.388611 499.837799,514.650696 495.963348,514.238098   C453.803986,509.748077 419.593903,490.556702 393.925568,457.049316   C371.466309,427.731018 362.207977,394.078918 364.575104,357.216278   C366.945923,320.296112 380.446533,287.859009 405.037598,260.433868   C430.451630,232.090897 462.605133,216.451828 500.730133,214.719559   C541.491882,212.867477 578.545044,223.304626 609.688782,250.930603   C612.306641,253.252777 614.811462,255.687317 616.706360,258.690155   C620.675720,264.980225 620.056030,271.583588 615.027832,275.829803   C609.638367,280.381104 603.661499,280.170898 598.004272,274.709900   C590.543457,267.507874 582.913025,260.512390 573.662048,255.712311   C536.695618,236.531326 498.640991,232.745010 460.121552,250.126114   C433.127747,262.306488 414.232849,283.336792 401.327240,309.794098   C393.015656,326.833374 388.841217,345.076172 388.497223,363.854279   C387.827026,400.439667 401.388062,431.407318 427.933838,457.067688  M603.821960,396.505798   C603.799683,392.341339 603.766235,388.176910 603.758301,384.012421   C603.750488,379.909424 601.783386,377.931885 597.611328,377.939850   C576.301270,377.980530 554.990906,378.002228 533.681030,377.925812   C529.010559,377.909058 527.169617,379.942200 527.175476,384.582062   C527.216187,416.899719 527.099854,449.217560 527.107483,481.535339   C527.108765,487.083801 528.789307,488.575134 534.212524,487.360138   C560.051697,481.571167 582.821899,470.390808 599.965393,449.441895   C602.626221,446.190491 603.973572,442.735291 603.926636,438.483612   C603.775940,424.824890 603.838989,411.163818 603.821960,396.505798  z"
   id="path1"
   style="fill:#e9ddb7;fill-opacity:1" />
<path
   fill="#000000"
   opacity="1.000000"
   stroke="none"
   d=" M310.549194,782.711304   C308.750732,796.837830 302.062836,804.196899 288.555115,807.497559   C279.699921,809.661194 270.702271,809.181335 261.726471,809.212708   C253.068390,809.242981 244.408707,809.342407 235.752579,809.216858   C229.418137,809.125061 226.990555,806.419739 227.054520,800.310120   C227.303497,776.530518 227.545868,752.750610 227.716751,728.970337   C227.816513,715.088806 228.843338,713.872559 242.811996,714.059937   C256.900391,714.248962 271.032928,713.001770 284.897461,717.462097   C302.481842,723.119080 308.923767,737.839844 300.172119,754.073242   C298.581177,757.024292 298.884644,759.434509 301.462646,761.592529   C307.909851,766.989502 310.749481,773.989014 310.549194,782.711304  M288.451477,795.044617   C295.219574,792.299500 298.361237,787.501099 298.031555,780.412659   C297.739319,774.129517 293.988037,769.538147 287.398865,767.502502   C284.041321,766.465210 280.596741,766.012268 277.068024,766.027893   C266.586609,766.074097 256.102722,766.173828 245.624374,765.991089   C241.434677,765.918030 239.958145,767.762878 239.994186,771.659058   C240.052673,777.980835 239.915054,784.304321 239.956757,790.626343   C239.997986,796.879883 241.723251,798.460083 248.110992,798.360840   C255.761826,798.242004 263.412537,798.062683 271.063751,798.035583   C276.776489,798.015381 282.324005,797.179688 288.451477,795.044617  M273.276794,753.814026   C277.459625,753.667114 281.556793,753.206909 285.258911,750.977295   C292.704529,746.493347 293.630219,739.401245 287.620728,733.134949   C285.107300,730.514038 282.015686,729.148560 278.581116,728.182617   C267.296997,725.008972 255.774582,726.749207 244.358002,726.384705   C241.098999,726.280579 240.143921,728.591064 240.089630,731.365295   C239.992126,736.349792 239.962143,741.336060 239.949844,746.321655   C239.932266,753.445984 241.166229,754.659607 248.415817,754.502075   C256.387299,754.328857 264.356995,754.075134 273.276794,753.814026  z"
   id="path2"
   style="fill:#e9ddb7;fill-opacity:1" />
<path
   fill="#000000"
   opacity="1.000000"
   stroke="none"
   d=" M392.699768,797.859253   C395.308563,798.031555 397.639465,797.839355 399.189270,799.679810   C400.768402,801.554932 401.346161,803.734741 400.443726,806.202271   C399.435974,808.957825 397.203461,809.259094 394.770599,809.257935   C378.275208,809.250366 361.779846,809.235474 345.284454,809.229675   C341.452789,809.228333 337.620880,809.228455 333.789551,809.271912   C329.436127,809.321350 327.400452,806.833618 326.994110,802.853760   C326.724304,800.211548 326.809326,797.528748 326.808563,794.864075   C326.801788,771.537598 326.787018,748.211060 326.829651,724.884644   C326.844513,716.736267 329.009705,714.223633 337.084900,714.164612   C351.897949,714.056274 366.714386,714.315857 381.528412,714.500732   C386.341766,714.560730 391.144196,713.880066 395.978241,714.666443   C399.612457,715.257629 401.267700,717.279480 401.266449,720.729614   C401.265167,724.392578 399.109558,726.393677 395.592041,726.283691   C383.437561,725.904053 371.324432,727.711914 359.142761,726.676270   C354.039337,726.242310 348.840973,726.805725 343.692993,727.061462   C340.665680,727.211914 339.260742,729.134216 339.250244,732.046936   C339.228027,738.210449 339.167114,744.377319 339.338226,750.536865   C339.466492,755.154541 342.343872,756.793457 346.673309,756.768127   C359.335938,756.693909 371.999146,756.699463 384.662109,756.705444   C387.159332,756.706604 389.666138,756.737793 392.151398,756.952942   C395.786865,757.267883 398.265350,759.146362 398.031555,763.000366   C397.801331,766.795837 395.317505,768.337036 391.544586,768.321167   C377.382385,768.261597 363.219635,768.337952 349.057159,768.319336   C339.855530,768.307251 339.116150,769.001160 339.114471,778.267090   C339.113708,782.432312 339.106171,786.598938 339.207550,790.762329   C339.354431,796.792114 340.254669,797.755127 346.250549,797.785095   C361.579315,797.861572 376.908630,797.834412 392.699768,797.859253  z"
   id="path3"
   style="fill:#e9ddb7;fill-opacity:1" />
<path
   fill="#000000"
   opacity="1.000000"
   stroke="none"
   d=" M496.247192,797.696533   C488.643311,783.170044 492.755157,785.323547 475.876495,785.211853   C464.548767,785.136841 453.218567,785.198853 441.894104,784.970581   C437.656616,784.885254 435.055237,786.470581 433.348907,790.354797   C431.342896,794.921387 428.950500,799.322510 426.622070,803.740723   C425.854553,805.197144 424.985382,806.736389 423.774719,807.793274   C421.524353,809.757690 418.842590,810.690063 415.990143,808.932739   C413.216370,807.223694 413.199799,804.553833 414.000488,801.847656   C415.478729,796.851562 418.384216,792.524597 420.730408,787.932983   C432.550385,764.800110 444.352112,741.657776 456.095276,718.485840   C457.586334,715.543640 459.101379,712.759216 462.837189,712.652893   C466.659729,712.544128 468.210022,715.396606 469.682129,718.305237   C482.690857,744.007507 495.727173,769.695923 508.727570,795.402405   C509.702667,797.330566 510.498688,799.352783 511.315247,801.356812   C512.507690,804.283508 512.477356,807.126770 509.353882,808.690674   C506.345581,810.196899 503.348541,809.534973 501.405548,806.668213   C499.544891,803.922913 498.073730,800.913513 496.247192,797.696533  M457.347809,741.866821   C453.339294,749.895996 449.188782,757.858276 445.368896,765.976196   C442.498962,772.075134 443.396667,773.466614 450.299011,773.644836   C458.612762,773.859558 466.936279,773.744202 475.255157,773.698303   C481.847107,773.661926 482.986481,771.846619 480.037476,765.705750   C476.150024,757.610657 472.152374,749.564880 468.011963,741.596741   C466.687408,739.047729 466.319092,734.872803 463.027618,734.721069   C459.649353,734.565247 459.456268,738.962097 457.347809,741.866821  z"
   id="path4"
   style="fill:#e9ddb7;fill-opacity:1" />
<path
   fill="#000000"
   opacity="1.000000"
   stroke="none"
   d=" M559.223145,810.112610   C549.091125,808.840271 539.801636,806.672241 532.187439,799.919739   C522.090637,790.965271 518.467957,779.230408 518.151428,766.364868   C517.791077,751.718201 518.098083,737.055054 518.129517,722.399109   C518.130981,721.737915 518.230469,721.067993 518.360291,720.417358   C519.141968,716.501282 520.642761,713.352905 525.493469,713.815002   C530.147095,714.258362 531.015747,717.695557 531.056030,721.343140   C531.182800,732.835205 531.091064,744.329712 531.097473,755.823242   C531.099792,759.987427 531.075378,764.153137 531.175110,768.315430   C531.545288,783.766418 538.904175,793.111694 553.838623,797.181824   C569.676880,801.498169 586.938660,792.718079 591.898621,777.906616   C592.987061,774.656372 592.942322,771.342834 592.951355,768.025696   C592.989502,754.033691 592.956726,740.041504 592.960266,726.049377   C592.960754,724.217712 592.927429,722.378540 593.073792,720.555969   C593.390686,716.611206 595.070557,713.805298 599.500977,713.821106   C604.207581,713.837891 605.207642,716.914673 605.201294,720.879456   C605.175598,737.037048 605.205383,753.194763 605.213562,769.352417   C605.216309,774.733643 604.314941,779.896301 602.246216,784.930725   C596.381958,799.201660 585.618347,806.979126 570.603088,809.191040   C566.993225,809.722839 563.320923,809.830322 559.223145,810.112610  z"
   id="path5"
   style="fill:#e9ddb7;fill-opacity:1" />
<path
   fill="#000000"
   opacity="1.000000"
   stroke="none"
   d=" M669.000000,714.072021   C678.158264,714.055115 686.817078,714.099487 695.474304,714.000549   C699.696960,713.952271 702.744873,715.298035 703.147339,719.924744   C703.571045,724.797363 700.291016,726.481445 696.292603,726.649780   C688.151062,726.992432 679.967957,727.387939 671.852356,726.908142   C667.067688,726.625244 665.979004,728.466980 665.992981,732.503235   C666.038513,745.656860 666.007324,758.810852 666.004578,771.964661   C666.002502,781.954956 666.096497,791.946716 665.945862,801.934814   C665.889099,805.701050 665.333984,809.479065 660.125916,809.542236   C655.621399,809.596863 653.654480,807.498535 653.654114,802.095154   C653.652710,779.949585 653.718750,757.804016 653.761841,735.658447   C653.764404,734.326477 653.780701,732.994507 653.795105,731.662537   C653.836731,727.812683 651.982239,726.407410 648.140198,726.664124   C639.501831,727.241455 630.859802,727.323608 622.211182,726.416443   C618.032349,725.978027 616.185974,723.600037 616.183472,719.880737   C616.181091,716.321167 618.588684,714.650330 622.064819,714.410706   C635.038696,713.516296 648.026978,714.202087 661.007263,714.028137   C663.504150,713.994690 666.002380,714.056458 669.000000,714.072021  z"
   id="path6"
   style="fill:#e9ddb7;fill-opacity:1" />
<path
   fill="#000000"
   opacity="1"
   stroke="none"
   d="m 785.51872,743.01379 c -6.07385,8.16754 -11.90966,16.06848 -17.83117,23.90467 -2.74433,3.63171 -3.70618,7.53253 -3.43732,12.13238 0.43695,7.47382 0.37335,14.98615 0.26636,22.47864 -0.0554,3.87433 -1.16571,7.39996 -5.97248,7.7478 -4.1228,0.29822 -6.72912,-2.13952 -6.89843,-7.34393 -0.23261,-7.14752 -0.12818,-14.32788 0.28753,-21.46759 0.31537,-5.41809 -0.74218,-10.10004 -4.11761,-14.46521 -9.8808,-12.77789 -19.58197,-25.69476 -29.33063,-38.57459 -1.10205,-1.45587 -2.18433,-2.95361 -3.05353,-4.55279 -1.48114,-2.72516 -1.75836,-5.55536 0.94983,-7.66327 2.96918,-2.31134 6.05701,-1.56873 8.61811,0.76819 1.57415,1.43622 2.7174,3.35345 4.01062,5.08728 8.26428,11.08014 16.47235,22.20245 24.79382,33.23944 3.45221,4.57874 4.82306,4.71088 8.29913,0.10443 8.32227,-11.02862 16.36286,-22.26953 24.54743,-33.40259 1.2796,-1.7406 2.5805,-3.5047 4.11493,-5.00982 2.35363,-2.3086 5.23669,-3.26911 8.09191,-1.08618 2.7815,2.1267 3.17157,5.22241 1.25104,8.02832 -3.94501,5.76367 -8.19903,11.31585 -12.32532,16.9555 -0.68853,0.94104 -1.37426,1.88416 -2.26422,3.11932 z"
   id="path7"
   style="fill:#e9ddb7;fill-opacity:1" />
</svg>
