<?xml version="1.0" standalone="no"?>
<!DOCTYPE svg PUBLIC "-//W3C//DTD SVG 20010904//EN"
 "http://www.w3.org/TR/2001/REC-SVG-20010904/DTD/svg10.dtd">
<svg version="1.0" xmlns="http://www.w3.org/2000/svg"
 width="400.000000pt" height="400.000000pt" viewBox="0 0 400.000000 400.000000"
 preserveAspectRatio="xMidYMid meet">

<g transform="translate(0.000000,400.000000) scale(0.100000,-0.100000)"
fill="#000000" stroke="none">
<path d="M2092 3580 c-317 -44 -621 -270 -776 -577 -97 -194 -123 -451 -65
-665 9 -34 13 -38 41 -38 27 0 30 3 24 22 -50 170 -50 173 -50 318 0 138 1
150 32 240 49 142 110 238 227 356 55 55 125 117 156 137 214 139 443 196 614
152 154 -39 223 -151 191 -306 -27 -127 -91 -223 -221 -329 -82 -67 -94 -89
-71 -125 29 -45 66 -34 146 41 253 239 303 580 104 712 -86 57 -218 80 -352
62z"/>
<path d="M1802 2515 c-36 -30 -88 -129 -132 -250 -36 -99 -63 -134 -154 -201
-42 -32 -68 -44 -92 -44 -44 0 -51 17 -35 92 26 125 -37 108 -130 -35 -71
-111 -78 -92 -19 55 22 55 37 104 34 109 -12 20 -46 8 -62 -23 -26 -50 -99
-118 -156 -144 -63 -29 -87 -30 -111 -4 -16 18 -17 27 -9 71 8 37 8 52 -1 59
-16 14 -43 3 -50 -20 -3 -10 -49 -44 -102 -75 l-96 -58 -44 46 c-46 49 -55 84
-27 112 11 11 25 14 38 10 55 -17 66 -17 66 -1 0 22 -42 40 -73 32 -14 -3 -40
-18 -57 -32 -27 -23 -31 -32 -28 -67 3 -35 9 -46 48 -75 25 -19 46 -37 47 -41
1 -3 -32 -32 -73 -64 -146 -113 -180 -237 -66 -237 111 0 249 192 202 279 -8
16 3 26 73 70 l82 51 7 -32 c3 -18 17 -41 30 -51 43 -36 168 -6 235 55 l22 20
-6 -74 c-5 -60 -3 -76 11 -87 25 -21 41 -8 85 66 23 37 49 79 59 92 19 23 19
23 14 -31 -4 -50 -2 -57 23 -76 49 -39 109 -23 206 53 l56 44 -28 -109 c-67
-269 -61 -430 16 -430 48 0 75 84 95 300 15 167 7 153 110 194 50 20 92 36 95
36 3 0 5 -15 5 -33 0 -40 25 -67 62 -67 37 0 88 63 88 109 0 18 7 20 74 20
l74 0 -5 -72 c-5 -61 -3 -76 12 -90 16 -17 19 -17 36 -1 10 9 32 40 48 68 16
28 37 61 47 74 l19 23 0 -51 c0 -61 18 -80 77 -80 49 0 89 20 148 76 l47 44 6
-29 c15 -73 129 -80 227 -14 39 26 52 29 44 10 -3 -8 4 -24 14 -37 18 -22 22
-23 51 -10 17 7 50 34 71 59 l40 46 0 -37 c0 -75 86 -100 186 -54 58 27 124
81 124 102 0 21 -14 17 -41 -12 -33 -36 -88 -70 -137 -85 -38 -11 -44 -10 -63
7 -18 17 -20 26 -15 76 9 77 -7 77 -91 -2 -35 -33 -68 -58 -74 -55 -14 9 18
76 54 112 18 18 46 35 64 39 26 5 36 2 57 -21 25 -27 50 -27 39 1 -8 21 -57
44 -95 44 -51 -1 -112 -33 -149 -80 -41 -52 -135 -115 -185 -124 -57 -11 -76
13 -72 89 3 55 1 60 -17 57 -11 -2 -21 -8 -23 -12 -24 -64 -143 -162 -199
-164 -38 -1 -38 -1 -37 39 1 22 3 58 5 80 9 86 -60 45 -134 -80 -64 -107 -61
-65 9 117 30 78 -18 94 -53 18 -20 -42 -39 -50 -128 -50 -38 0 -55 4 -59 15
-6 17 -32 20 -41 4 -4 -5 1 -19 10 -29 19 -21 15 -45 -16 -84 -36 -46 -50 -11
-28 68 16 59 49 86 93 79 39 -6 51 11 15 22 -39 13 -87 -5 -135 -49 -32 -30
-72 -53 -129 -75 -125 -47 -123 -45 -151 -201 -39 -223 -55 -289 -65 -263 -10
27 2 151 30 304 36 197 50 234 124 332 98 128 136 211 116 248 -13 26 -42 24
-77 -6z m52 -27 c-16 -52 -112 -214 -121 -204 -7 6 47 133 78 180 30 49 55 62
43 24z m-1174 -519 c-25 -85 -146 -217 -186 -202 -21 8 -17 45 9 80 36 49 158
153 179 153 3 0 3 -14 -2 -31z"/>
<path d="M936 2291 c-19 -21 -21 -51 -3 -51 18 0 37 21 37 41 0 26 -15 31 -34
10z"/>
<path d="M2690 2290 c-24 -24 -26 -39 -5 -46 20 -8 45 13 45 37 0 28 -17 32
-40 9z"/>
<path d="M2025 1905 c-44 -43 -28 -84 40 -111 53 -20 71 -44 55 -74 -15 -28
-55 -36 -86 -15 -33 22 -46 9 -15 -16 32 -26 77 -24 106 6 44 43 23 96 -46
116 -46 14 -65 40 -49 68 13 25 44 35 69 22 33 -18 48 -12 22 9 -31 27 -67 25
-96 -5z"/>
<path d="M3095 1905 c-23 -22 -25 -32 -25 -109 0 -79 2 -86 26 -105 15 -12 37
-21 49 -21 26 0 74 35 63 46 -5 4 -16 0 -26 -9 -24 -22 -55 -21 -75 1 -26 29
-24 155 3 182 24 24 38 25 68 4 32 -22 43 -7 13 17 -32 26 -67 24 -96 -6z"/>
<path d="M1802 1798 l3 -123 58 0 c68 0 78 18 9 19 l-47 1 -3 48 -3 47 45 0
c58 0 60 18 4 22 -43 3 -43 3 -46 46 l-3 42 50 0 c27 0 53 5 56 10 4 6 -18 10
-60 10 l-66 0 3 -122z"/>
<path d="M2205 1910 c3 -5 19 -10 35 -10 l29 0 3 -110 c2 -65 7 -110 13 -110
6 0 11 45 13 110 l3 110 29 0 c16 0 32 5 35 10 4 6 -25 10 -80 10 -55 0 -84
-4 -80 -10z"/>
<path d="M2442 1798 l3 -123 49 -3 c71 -5 94 11 26 18 l-55 5 -3 48 -3 47 45
0 c26 0 46 5 46 10 0 6 -20 10 -45 10 l-45 0 0 45 0 45 49 0 c28 0 53 5 56 10
4 6 -18 10 -60 10 l-66 0 3 -122z"/>
<path d="M2630 1910 c0 -5 16 -10 35 -10 l35 0 0 -109 c0 -63 4 -112 10 -116
6 -4 10 35 10 109 l0 116 34 0 c19 0 38 5 41 10 4 6 -25 10 -79 10 -51 0 -86
-4 -86 -10z"/>
<path d="M2860 1910 c0 -5 11 -10 25 -10 24 0 25 -3 26 -57 4 -145 3 -153 -26
-153 -14 0 -25 -4 -25 -10 0 -6 28 -10 65 -10 37 0 65 4 65 10 0 6 -11 10 -25
10 l-25 0 0 105 0 105 25 0 c14 0 25 5 25 10 0 6 -28 10 -65 10 -37 0 -65 -4
-65 -10z"/>
<path d="M3308 1803 c-21 -67 -33 -122 -28 -127 5 -5 14 9 21 33 12 40 13 41
56 41 38 0 45 -3 54 -27 20 -56 22 -60 26 -38 5 29 -63 230 -79 233 -9 2 -25
-35 -50 -115z m61 55 c5 -13 12 -38 16 -55 6 -33 6 -33 -30 -33 -28 0 -36 4
-32 14 3 8 11 32 18 55 7 23 14 41 16 41 2 0 7 -10 12 -22z"/>
<path d="M1755 1573 c380 -357 515 -525 586 -732 56 -161 21 -319 -87 -401
-115 -88 -338 -93 -487 -13 -69 38 -151 130 -177 200 -81 211 10 400 215 449
108 26 115 29 115 63 0 46 -27 55 -103 36 -203 -52 -315 -227 -285 -448 33
-250 300 -432 570 -388 188 30 298 139 329 327 37 226 -134 528 -495 872 l-97
92 -72 0 -72 0 60 -57z"/>
</g>
</svg>
